<?xml version="1.0" standalone="no"?>
<!DOCTYPE svg PUBLIC "-//W3C//DTD SVG 20010904//EN"
 "http://www.w3.org/TR/2001/REC-SVG-20010904/DTD/svg10.dtd">
<svg version="1.0" xmlns="http://www.w3.org/2000/svg"
 width="320.000000pt" height="240.000000pt" viewBox="0 0 320.000000 240.000000"
 preserveAspectRatio="xMidYMid meet">

<g transform="translate(0.000000,240.000000) scale(0.100000,-0.100000)"
fill="#000000" stroke="none">
<path d="M1485 2354 c-325 -48 -568 -219 -709 -501 -66 -132 -81 -206 -81
-393 0 -142 3 -176 23 -243 76 -263 272 -484 521 -586 118 -49 210 -66 356
-65 153 2 244 22 373 84 156 75 270 173 363 313 130 199 177 435 133 668 -42
225 -183 441 -368 569 -72 49 -203 108 -291 130 -77 20 -257 33 -320 24z m240
-299 c110 -28 203 -81 287 -165 l76 -76 38 28 c20 15 41 25 45 22 15 -9 11
-302 -3 -306 -14 -5 -267 87 -282 102 -5 5 10 22 38 41 25 18 46 38 46 44 0
26 -112 117 -186 152 -67 32 -87 37 -173 41 -112 5 -182 -10 -269 -60 -110
-62 -206 -195 -231 -319 l-12 -56 -47 5 c-82 9 -81 8 -66 81 46 224 228 411
453 466 76 18 214 18 286 0z m-67 -310 c149 -44 231 -198 188 -350 -32 -109
-150 -195 -267 -195 -97 0 -210 76 -252 168 -29 65 -29 162 1 222 31 66 100
129 164 151 65 23 100 23 166 4z m520 -340 c18 -6 15 -45 -13 -133 -58 -183
-199 -327 -385 -393 -55 -20 -85 -23 -195 -24 -111 0 -140 3 -198 24 -87 29
-203 107 -261 173 l-45 51 -39 -26 c-22 -14 -43 -23 -46 -20 -10 10 -7 301 3
307 7 5 128 -36 254 -86 38 -15 34 -29 -19 -67 l-47 -33 53 -53 c190 -192 492
-194 682 -5 66 66 124 175 134 252 l7 48 51 -6 c28 -3 57 -7 64 -9z"/>
<path d="M1570 1656 c0 -7 -14 -19 -31 -27 -70 -28 -72 -121 -3 -154 31 -15
34 -20 34 -61 0 -49 -17 -57 -35 -16 -13 28 -55 30 -55 3 0 -24 47 -81 66 -81
8 0 17 -7 20 -15 4 -8 17 -15 30 -15 15 0 24 6 24 15 0 8 6 15 14 15 25 0 66
44 72 77 5 27 1 37 -24 63 -17 16 -38 30 -46 30 -13 0 -16 11 -15 53 0 50 1
51 16 30 17 -25 53 -31 53 -9 0 28 -13 47 -41 62 -16 8 -29 21 -29 29 0 9 -10
15 -25 15 -15 0 -25 -6 -25 -14z m0 -106 c0 -30 -3 -38 -15 -34 -20 8 -29 42
-15 59 21 25 30 17 30 -25z m80 -131 c9 -15 8 -24 -1 -35 -19 -23 -29 -16 -29
21 0 39 14 46 30 14z"/>
<path d="M464 430 c-47 -19 -71 -100 -44 -151 22 -40 98 -61 141 -38 30 16 14
28 -30 22 -33 -5 -44 -1 -65 20 -32 32 -33 65 -4 102 18 23 26 26 60 22 39 -5
61 9 37 24 -18 11 -67 10 -95 -1z"/>
<path d="M620 356 c0 -79 2 -86 26 -105 30 -23 64 -27 97 -10 34 18 37 28 37
117 0 66 -3 82 -15 82 -12 0 -15 -15 -15 -78 0 -83 -9 -102 -46 -102 -41 0
-54 25 -54 106 0 59 -3 74 -15 74 -12 0 -15 -16 -15 -84z"/>
<path d="M850 336 c0 -88 3 -106 15 -106 11 0 15 11 15 40 0 27 4 40 14 40 7
0 26 -18 41 -40 16 -22 36 -40 46 -40 24 0 24 1 -10 44 -29 37 -30 37 -10 57
10 10 19 29 19 42 0 41 -23 59 -78 65 l-52 5 0 -107z m84 58 c22 -21 4 -54
-29 -54 -22 0 -25 4 -25 35 0 28 4 35 19 35 11 0 27 -7 35 -16z"/>
<path d="M1040 335 c0 -85 3 -105 14 -105 10 0 16 13 18 37 4 51 26 52 61 3
17 -24 36 -40 48 -40 19 0 18 4 -11 40 l-31 39 21 29 c41 55 4 102 -80 102
l-40 0 0 -105z m84 69 c26 -10 20 -53 -8 -60 -32 -8 -46 2 -46 30 0 35 17 44
54 30z"/>
<path d="M1240 335 l0 -105 60 0 c47 0 60 3 60 15 0 11 -12 15 -45 15 -43 0
-45 1 -45 30 0 28 2 30 40 30 29 0 40 4 40 15 0 11 -11 15 -40 15 -38 0 -40 2
-40 30 0 29 2 30 45 30 33 0 45 4 45 15 0 12 -13 15 -60 15 l-60 0 0 -105z"/>
<path d="M1410 335 c0 -87 3 -105 15 -105 12 0 15 14 15 70 0 39 3 70 8 69 4
0 31 -31 60 -70 29 -38 57 -69 63 -69 5 0 9 45 9 105 0 63 -4 105 -10 105 -6
0 -10 -30 -10 -70 0 -38 -4 -70 -8 -70 -4 0 -32 32 -61 70 -30 39 -60 70 -67
70 -11 0 -14 -23 -14 -105z"/>
<path d="M1668 412 c-27 -25 -31 -36 -31 -77 0 -41 4 -52 31 -77 34 -30 77
-37 113 -18 33 18 21 30 -23 24 -55 -7 -88 20 -88 71 0 51 31 79 81 72 44 -6
60 6 30 22 -36 20 -79 13 -113 -17z"/>
<path d="M1841 403 c12 -21 29 -47 36 -58 7 -11 13 -41 13 -67 0 -36 4 -48 15
-48 11 0 15 11 15 41 0 32 10 58 40 105 34 54 38 64 22 64 -12 0 -28 -17 -44
-47 l-26 -47 -29 47 c-17 29 -35 47 -46 47 -17 0 -17 -3 4 -37z"/>
<path d="M2074 430 c-47 -19 -71 -100 -44 -151 22 -40 98 -61 141 -38 30 16
14 28 -30 22 -33 -5 -44 -1 -65 20 -32 32 -33 65 -4 102 18 23 26 26 60 22 39
-5 61 9 37 24 -18 11 -67 10 -95 -1z"/>
<path d="M2252 340 c-48 -114 -47 -110 -28 -110 7 0 19 13 26 30 11 27 17 30
57 30 41 0 46 -3 56 -30 7 -17 19 -30 29 -30 14 0 10 16 -26 103 -24 57 -50
103 -58 105 -10 2 -27 -27 -56 -98z m75 8 c13 -30 9 -38 -24 -38 -26 0 -29 16
-11 55 12 27 18 25 35 -17z"/>
<path d="M2450 335 l0 -105 60 0 c47 0 60 3 60 15 0 11 -12 15 -45 15 l-45 0
0 90 c0 73 -3 90 -15 90 -12 0 -15 -18 -15 -105z"/>
<path d="M2628 412 c-27 -25 -31 -36 -31 -77 0 -41 4 -52 31 -77 34 -30 77
-37 113 -18 33 18 21 30 -23 24 -55 -7 -88 20 -88 71 0 51 31 79 81 72 44 -6
60 6 30 22 -36 20 -79 13 -113 -17z"/>
<path d="M1395 139 c-16 -25 18 -29 191 -27 151 3 179 5 179 18 0 13 -28 15
-182 18 -125 2 -184 -1 -188 -9z"/>
</g>
</svg>
